<mxfile host="app.diagrams.net" modified="2023-12-02T12:26:53.601Z" agent="Mozilla/5.0 (Windows NT 10.0; Win64; x64) AppleWebKit/537.36 (KHTML, like Gecko) Chrome/119.0.0.0 Safari/537.36" etag="LPS7v3hOPMEiP5AN_w3v" version="22.1.5" type="device">
  <diagram name="Page-1" id="wecp4SySZqMFChHvukmM">
    <mxGraphModel dx="1756" dy="771" grid="1" gridSize="10" guides="1" tooltips="1" connect="1" arrows="1" fold="1" page="1" pageScale="1" pageWidth="850" pageHeight="1100" math="0" shadow="0">
      <root>
        <mxCell id="0" />
        <mxCell id="1" parent="0" />
        <mxCell id="rqz9PTt29rdDZoSEeYAL-1" value="&lt;div style=&quot;color: rgb(204, 204, 204); background-color: rgb(31, 31, 31); font-family: Consolas, &amp;quot;Courier New&amp;quot;, monospace; font-weight: normal; font-size: 14px; line-height: 19px;&quot;&gt;AddressBook&lt;/div&gt;" style="swimlane;fontStyle=1;align=center;verticalAlign=top;childLayout=stackLayout;horizontal=1;startSize=26;horizontalStack=0;resizeParent=1;resizeParentMax=0;resizeLast=0;collapsible=1;marginBottom=0;whiteSpace=wrap;html=1;" parent="1" vertex="1">
          <mxGeometry x="380" y="400" width="200" height="180" as="geometry">
            <mxRectangle x="30" y="90" width="130" height="30" as="alternateBounds" />
          </mxGeometry>
        </mxCell>
        <mxCell id="rqz9PTt29rdDZoSEeYAL-2" value="+&amp;nbsp;add_record(Record)&lt;br&gt;+&amp;nbsp;del_phone()&lt;br&gt;+ show_phone()&lt;br&gt;+ show_phones()&lt;br&gt;+ search_in()&lt;br&gt;+ add_contact()&lt;br&gt;+ delete_contact()&lt;br&gt;+ edit_contact()&lt;br&gt;+ bitthday_in_days()&lt;br&gt;+ show_all_cont()" style="text;strokeColor=none;fillColor=none;align=left;verticalAlign=top;spacingLeft=4;spacingRight=4;overflow=hidden;rotatable=0;points=[[0,0.5],[1,0.5]];portConstraint=eastwest;whiteSpace=wrap;html=1;" parent="rqz9PTt29rdDZoSEeYAL-1" vertex="1">
          <mxGeometry y="26" width="200" height="154" as="geometry" />
        </mxCell>
        <mxCell id="Gyjzuh-WRQCNcB6IB7TK-205" style="edgeStyle=orthogonalEdgeStyle;rounded=0;orthogonalLoop=1;jettySize=auto;html=1;" edge="1" parent="1" source="rqz9PTt29rdDZoSEeYAL-5" target="rqz9PTt29rdDZoSEeYAL-2">
          <mxGeometry relative="1" as="geometry">
            <Array as="points">
              <mxPoint x="360" y="546" />
              <mxPoint x="360" y="546" />
            </Array>
          </mxGeometry>
        </mxCell>
        <mxCell id="rqz9PTt29rdDZoSEeYAL-5" value="&lt;div style=&quot;color: rgb(204, 204, 204); background-color: rgb(31, 31, 31); font-family: Consolas, &amp;quot;Courier New&amp;quot;, monospace; font-weight: normal; font-size: 14px; line-height: 19px;&quot;&gt;Record&lt;/div&gt;" style="swimlane;fontStyle=1;align=center;verticalAlign=top;childLayout=stackLayout;horizontal=1;startSize=26;horizontalStack=0;resizeParent=1;resizeParentMax=0;resizeLast=0;collapsible=1;marginBottom=0;whiteSpace=wrap;html=1;" parent="1" vertex="1">
          <mxGeometry x="20" y="386" width="220" height="320" as="geometry">
            <mxRectangle x="30" y="90" width="130" height="30" as="alternateBounds" />
          </mxGeometry>
        </mxCell>
        <mxCell id="rqz9PTt29rdDZoSEeYAL-6" value="&lt;span style=&quot;background-color: initial;&quot;&gt;+ name: Name&lt;br&gt;+ phone: Phone&lt;br&gt;+ birthday: Birthday&lt;br&gt;+ email: Email&lt;br&gt;+ address: Address&lt;br&gt;&lt;/span&gt;" style="text;strokeColor=none;fillColor=none;align=left;verticalAlign=top;spacingLeft=4;spacingRight=4;overflow=hidden;rotatable=0;points=[[0,0.5],[1,0.5]];portConstraint=eastwest;whiteSpace=wrap;html=1;" parent="rqz9PTt29rdDZoSEeYAL-5" vertex="1">
          <mxGeometry y="26" width="220" height="84" as="geometry" />
        </mxCell>
        <mxCell id="rqz9PTt29rdDZoSEeYAL-7" value="" style="line;strokeWidth=1;fillColor=none;align=left;verticalAlign=middle;spacingTop=-1;spacingLeft=3;spacingRight=3;rotatable=0;labelPosition=right;points=[];portConstraint=eastwest;strokeColor=inherit;" parent="rqz9PTt29rdDZoSEeYAL-5" vertex="1">
          <mxGeometry y="110" width="220" height="8" as="geometry" />
        </mxCell>
        <mxCell id="rqz9PTt29rdDZoSEeYAL-8" value="+ add_phone(Phone)&lt;br&gt;+ add_birthday(Birthday)&lt;br&gt;+ add_mail(Email)&lt;br&gt;+ add_address(Address)&lt;br&gt;+ show_birthday()&lt;br&gt;+&amp;nbsp;show_phones()&lt;br&gt;+&amp;nbsp;show_email()&lt;br&gt;+&amp;nbsp;change_phone(Phone)&lt;br&gt;+&amp;nbsp;change_birthday_in(Birthday)&lt;br&gt;+&amp;nbsp;change_email_iner(Email)&lt;br&gt;+&amp;nbsp;change_address_iner(Address)&lt;br&gt;+&amp;nbsp;delete_phone(Phone)&lt;br&gt;+&amp;nbsp;days_to_birthday()" style="text;strokeColor=none;fillColor=none;align=left;verticalAlign=top;spacingLeft=4;spacingRight=4;overflow=hidden;rotatable=0;points=[[0,0.5],[1,0.5]];portConstraint=eastwest;whiteSpace=wrap;html=1;" parent="rqz9PTt29rdDZoSEeYAL-5" vertex="1">
          <mxGeometry y="118" width="220" height="202" as="geometry" />
        </mxCell>
        <mxCell id="rqz9PTt29rdDZoSEeYAL-9" value="&lt;div style=&quot;color: rgb(204, 204, 204); background-color: rgb(31, 31, 31); font-family: Consolas, &amp;quot;Courier New&amp;quot;, monospace; font-weight: normal; font-size: 14px; line-height: 19px;&quot;&gt;Phone&lt;/div&gt;" style="swimlane;fontStyle=1;align=center;verticalAlign=top;childLayout=stackLayout;horizontal=1;startSize=26;horizontalStack=0;resizeParent=1;resizeParentMax=0;resizeLast=0;collapsible=1;marginBottom=0;whiteSpace=wrap;html=1;" parent="1" vertex="1">
          <mxGeometry x="20" y="227" width="140" height="56" as="geometry">
            <mxRectangle x="30" y="90" width="130" height="30" as="alternateBounds" />
          </mxGeometry>
        </mxCell>
        <mxCell id="Gyjzuh-WRQCNcB6IB7TK-210" value="&amp;nbsp;- value: str" style="text;html=1;align=left;verticalAlign=middle;resizable=0;points=[];autosize=1;strokeColor=none;fillColor=none;" vertex="1" parent="rqz9PTt29rdDZoSEeYAL-9">
          <mxGeometry y="26" width="140" height="30" as="geometry" />
        </mxCell>
        <mxCell id="rqz9PTt29rdDZoSEeYAL-13" value="&lt;div style=&quot;color: rgb(204, 204, 204); background-color: rgb(31, 31, 31); font-family: Consolas, &amp;quot;Courier New&amp;quot;, monospace; font-weight: normal; font-size: 14px; line-height: 19px;&quot;&gt;Name&lt;/div&gt;" style="swimlane;fontStyle=1;align=center;verticalAlign=top;childLayout=stackLayout;horizontal=1;startSize=26;horizontalStack=0;resizeParent=1;resizeParentMax=0;resizeLast=0;collapsible=1;marginBottom=0;whiteSpace=wrap;html=1;" parent="1" vertex="1">
          <mxGeometry x="180" y="227" width="140" height="52" as="geometry">
            <mxRectangle x="30" y="90" width="130" height="30" as="alternateBounds" />
          </mxGeometry>
        </mxCell>
        <mxCell id="rqz9PTt29rdDZoSEeYAL-14" value="- value: str" style="text;strokeColor=none;fillColor=none;align=left;verticalAlign=top;spacingLeft=4;spacingRight=4;overflow=hidden;rotatable=0;points=[[0,0.5],[1,0.5]];portConstraint=eastwest;whiteSpace=wrap;html=1;" parent="rqz9PTt29rdDZoSEeYAL-13" vertex="1">
          <mxGeometry y="26" width="140" height="26" as="geometry" />
        </mxCell>
        <mxCell id="rqz9PTt29rdDZoSEeYAL-17" value="&lt;div style=&quot;color: rgb(204, 204, 204); background-color: rgb(31, 31, 31); font-family: Consolas, &amp;quot;Courier New&amp;quot;, monospace; font-weight: normal; font-size: 14px; line-height: 19px;&quot;&gt;Birthday&lt;/div&gt;" style="swimlane;fontStyle=1;align=center;verticalAlign=top;childLayout=stackLayout;horizontal=1;startSize=26;horizontalStack=0;resizeParent=1;resizeParentMax=0;resizeLast=0;collapsible=1;marginBottom=0;whiteSpace=wrap;html=1;" parent="1" vertex="1">
          <mxGeometry x="500" y="227" width="140" height="52" as="geometry">
            <mxRectangle x="30" y="90" width="130" height="30" as="alternateBounds" />
          </mxGeometry>
        </mxCell>
        <mxCell id="rqz9PTt29rdDZoSEeYAL-18" value="- value: str" style="text;strokeColor=none;fillColor=none;align=left;verticalAlign=top;spacingLeft=4;spacingRight=4;overflow=hidden;rotatable=0;points=[[0,0.5],[1,0.5]];portConstraint=eastwest;whiteSpace=wrap;html=1;" parent="rqz9PTt29rdDZoSEeYAL-17" vertex="1">
          <mxGeometry y="26" width="140" height="26" as="geometry" />
        </mxCell>
        <mxCell id="rqz9PTt29rdDZoSEeYAL-21" value="&lt;div style=&quot;color: rgb(204, 204, 204); background-color: rgb(31, 31, 31); font-family: Consolas, &amp;quot;Courier New&amp;quot;, monospace; font-weight: normal; font-size: 14px; line-height: 19px;&quot;&gt;Addres&lt;/div&gt;" style="swimlane;fontStyle=1;align=center;verticalAlign=top;childLayout=stackLayout;horizontal=1;startSize=26;horizontalStack=0;resizeParent=1;resizeParentMax=0;resizeLast=0;collapsible=1;marginBottom=0;whiteSpace=wrap;html=1;" parent="1" vertex="1">
          <mxGeometry x="340" y="227" width="140" height="52" as="geometry">
            <mxRectangle x="30" y="90" width="130" height="30" as="alternateBounds" />
          </mxGeometry>
        </mxCell>
        <mxCell id="rqz9PTt29rdDZoSEeYAL-22" value="- value: str" style="text;strokeColor=none;fillColor=none;align=left;verticalAlign=top;spacingLeft=4;spacingRight=4;overflow=hidden;rotatable=0;points=[[0,0.5],[1,0.5]];portConstraint=eastwest;whiteSpace=wrap;html=1;" parent="rqz9PTt29rdDZoSEeYAL-21" vertex="1">
          <mxGeometry y="26" width="140" height="26" as="geometry" />
        </mxCell>
        <mxCell id="Gyjzuh-WRQCNcB6IB7TK-203" style="edgeStyle=orthogonalEdgeStyle;rounded=0;orthogonalLoop=1;jettySize=auto;html=1;" edge="1" parent="1" source="rqz9PTt29rdDZoSEeYAL-25">
          <mxGeometry relative="1" as="geometry">
            <mxPoint x="100" y="386" as="targetPoint" />
            <Array as="points">
              <mxPoint x="730" y="320" />
              <mxPoint x="100" y="320" />
            </Array>
          </mxGeometry>
        </mxCell>
        <mxCell id="Gyjzuh-WRQCNcB6IB7TK-223" style="edgeStyle=orthogonalEdgeStyle;rounded=0;orthogonalLoop=1;jettySize=auto;html=1;exitX=0.5;exitY=0;exitDx=0;exitDy=0;entryX=0.5;entryY=0.946;entryDx=0;entryDy=0;entryPerimeter=0;" edge="1" parent="1" source="rqz9PTt29rdDZoSEeYAL-25" target="rqz9PTt29rdDZoSEeYAL-34">
          <mxGeometry relative="1" as="geometry">
            <mxPoint x="90" y="130" as="targetPoint" />
            <Array as="points">
              <mxPoint x="730" y="160" />
              <mxPoint x="90" y="160" />
            </Array>
          </mxGeometry>
        </mxCell>
        <mxCell id="rqz9PTt29rdDZoSEeYAL-25" value="&lt;div style=&quot;color: rgb(204, 204, 204); background-color: rgb(31, 31, 31); font-family: Consolas, &amp;quot;Courier New&amp;quot;, monospace; font-weight: normal; font-size: 14px; line-height: 19px;&quot;&gt;Email&lt;/div&gt;" style="swimlane;fontStyle=1;align=center;verticalAlign=top;childLayout=stackLayout;horizontal=1;startSize=26;horizontalStack=0;resizeParent=1;resizeParentMax=0;resizeLast=0;collapsible=1;marginBottom=0;whiteSpace=wrap;html=1;" parent="1" vertex="1">
          <mxGeometry x="660" y="227" width="140" height="52" as="geometry">
            <mxRectangle x="30" y="90" width="130" height="30" as="alternateBounds" />
          </mxGeometry>
        </mxCell>
        <mxCell id="rqz9PTt29rdDZoSEeYAL-26" value="- value: str" style="text;strokeColor=none;fillColor=none;align=left;verticalAlign=top;spacingLeft=4;spacingRight=4;overflow=hidden;rotatable=0;points=[[0,0.5],[1,0.5]];portConstraint=eastwest;whiteSpace=wrap;html=1;" parent="rqz9PTt29rdDZoSEeYAL-25" vertex="1">
          <mxGeometry y="26" width="140" height="26" as="geometry" />
        </mxCell>
        <mxCell id="rqz9PTt29rdDZoSEeYAL-33" value="&lt;div style=&quot;color: rgb(204, 204, 204); background-color: rgb(31, 31, 31); font-family: Consolas, &amp;quot;Courier New&amp;quot;, monospace; font-weight: normal; font-size: 14px; line-height: 19px;&quot;&gt;Field&lt;/div&gt;" style="swimlane;fontStyle=1;align=center;verticalAlign=top;childLayout=stackLayout;horizontal=1;startSize=26;horizontalStack=0;resizeParent=1;resizeParentMax=0;resizeLast=0;collapsible=1;marginBottom=0;whiteSpace=wrap;html=1;" parent="1" vertex="1">
          <mxGeometry x="20" y="70" width="140" height="50" as="geometry">
            <mxRectangle x="30" y="90" width="130" height="30" as="alternateBounds" />
          </mxGeometry>
        </mxCell>
        <mxCell id="rqz9PTt29rdDZoSEeYAL-34" value="+ value&lt;span style=&quot;background-color: initial;&quot;&gt;:&amp;nbsp;&lt;/span&gt;" style="text;strokeColor=none;fillColor=none;align=left;verticalAlign=top;spacingLeft=4;spacingRight=4;overflow=hidden;rotatable=0;points=[[0,0.5],[1,0.5]];portConstraint=eastwest;whiteSpace=wrap;html=1;" parent="rqz9PTt29rdDZoSEeYAL-33" vertex="1">
          <mxGeometry y="26" width="140" height="24" as="geometry" />
        </mxCell>
        <mxCell id="Gyjzuh-WRQCNcB6IB7TK-206" value="UserDict" style="rounded=0;whiteSpace=wrap;html=1;" vertex="1" parent="1">
          <mxGeometry x="630" y="352" width="80" height="34" as="geometry" />
        </mxCell>
        <mxCell id="Gyjzuh-WRQCNcB6IB7TK-217" value="" style="endArrow=none;html=1;rounded=0;entryX=0.5;entryY=1;entryDx=0;entryDy=0;" edge="1" parent="1" target="rqz9PTt29rdDZoSEeYAL-13">
          <mxGeometry width="50" height="50" relative="1" as="geometry">
            <mxPoint x="250" y="320" as="sourcePoint" />
            <mxPoint x="330" y="260" as="targetPoint" />
          </mxGeometry>
        </mxCell>
        <mxCell id="Gyjzuh-WRQCNcB6IB7TK-218" value="" style="endArrow=none;html=1;rounded=0;entryX=0.5;entryY=1;entryDx=0;entryDy=0;" edge="1" parent="1">
          <mxGeometry width="50" height="50" relative="1" as="geometry">
            <mxPoint x="409.76" y="320" as="sourcePoint" />
            <mxPoint x="409.76" y="279" as="targetPoint" />
          </mxGeometry>
        </mxCell>
        <mxCell id="Gyjzuh-WRQCNcB6IB7TK-219" value="" style="endArrow=none;html=1;rounded=0;entryX=0.5;entryY=1;entryDx=0;entryDy=0;" edge="1" parent="1">
          <mxGeometry width="50" height="50" relative="1" as="geometry">
            <mxPoint x="100" y="320" as="sourcePoint" />
            <mxPoint x="99.75999999999999" y="283" as="targetPoint" />
          </mxGeometry>
        </mxCell>
        <mxCell id="Gyjzuh-WRQCNcB6IB7TK-220" value="" style="endArrow=none;html=1;rounded=0;entryX=0.5;entryY=1;entryDx=0;entryDy=0;" edge="1" parent="1">
          <mxGeometry width="50" height="50" relative="1" as="geometry">
            <mxPoint x="569.76" y="320" as="sourcePoint" />
            <mxPoint x="569.76" y="279" as="targetPoint" />
          </mxGeometry>
        </mxCell>
        <mxCell id="Gyjzuh-WRQCNcB6IB7TK-224" value="" style="endArrow=none;html=1;rounded=0;" edge="1" parent="1">
          <mxGeometry width="50" height="50" relative="1" as="geometry">
            <mxPoint x="89.96" y="227" as="sourcePoint" />
            <mxPoint x="89.96" y="160" as="targetPoint" />
          </mxGeometry>
        </mxCell>
        <mxCell id="Gyjzuh-WRQCNcB6IB7TK-225" value="" style="endArrow=none;html=1;rounded=0;" edge="1" parent="1">
          <mxGeometry width="50" height="50" relative="1" as="geometry">
            <mxPoint x="249.55" y="227" as="sourcePoint" />
            <mxPoint x="249.55" y="160" as="targetPoint" />
          </mxGeometry>
        </mxCell>
        <mxCell id="Gyjzuh-WRQCNcB6IB7TK-226" value="" style="endArrow=none;html=1;rounded=0;" edge="1" parent="1">
          <mxGeometry width="50" height="50" relative="1" as="geometry">
            <mxPoint x="409.54999999999995" y="227" as="sourcePoint" />
            <mxPoint x="409.54999999999995" y="160" as="targetPoint" />
          </mxGeometry>
        </mxCell>
        <mxCell id="Gyjzuh-WRQCNcB6IB7TK-227" value="" style="endArrow=none;html=1;rounded=0;" edge="1" parent="1">
          <mxGeometry width="50" height="50" relative="1" as="geometry">
            <mxPoint x="569.55" y="227" as="sourcePoint" />
            <mxPoint x="569.55" y="160" as="targetPoint" />
          </mxGeometry>
        </mxCell>
        <mxCell id="Gyjzuh-WRQCNcB6IB7TK-228" style="edgeStyle=orthogonalEdgeStyle;rounded=0;orthogonalLoop=1;jettySize=auto;html=1;entryX=0.5;entryY=1;entryDx=0;entryDy=0;" edge="1" parent="1" source="rqz9PTt29rdDZoSEeYAL-2" target="Gyjzuh-WRQCNcB6IB7TK-206">
          <mxGeometry relative="1" as="geometry" />
        </mxCell>
      </root>
    </mxGraphModel>
  </diagram>
</mxfile>
